<?xml version="1.0" encoding="UTF-8" standalone="no"?>
<!-- Created with Inkscape (http://www.inkscape.org/) -->

<svg
   xmlns:dc="http://purl.org/dc/elements/1.1/"
   xmlns:cc="http://creativecommons.org/ns#"
   xmlns:rdf="http://www.w3.org/1999/02/22-rdf-syntax-ns#"
   xmlns:svg="http://www.w3.org/2000/svg"
   xmlns="http://www.w3.org/2000/svg"
   xmlns:sodipodi="http://sodipodi.sourceforge.net/DTD/sodipodi-0.dtd"
   xmlns:inkscape="http://www.inkscape.org/namespaces/inkscape"
   width="210mm"
   height="297mm"
   viewBox="0 0 210 297"
   version="1.1"
   id="svg4502"
   inkscape:version="0.92.0 r15299"
   sodipodi:docname="capital-c.svg">
  <defs
     id="defs4496" />
  <sodipodi:namedview
     id="base"
     pagecolor="#ffffff"
     bordercolor="#666666"
     borderopacity="1.0"
     inkscape:pageopacity="0.0"
     inkscape:pageshadow="2"
     inkscape:zoom="0.98994949"
     inkscape:cx="382.70419"
     inkscape:cy="497.19496"
     inkscape:document-units="mm"
     inkscape:current-layer="layer1"
     showgrid="false"
     inkscape:window-width="2756"
     inkscape:window-height="1755"
     inkscape:window-x="-13"
     inkscape:window-y="-13"
     inkscape:window-maximized="1" />
  <metadata
     id="metadata4499">
    <rdf:RDF>
      <cc:Work
         rdf:about="">
        <dc:format>image/svg+xml</dc:format>
        <dc:type
           rdf:resource="http://purl.org/dc/dcmitype/StillImage" />
        <dc:title></dc:title>
      </cc:Work>
    </rdf:RDF>
  </metadata>
  <g
     inkscape:label="Layer 1"
     inkscape:groupmode="layer"
     id="layer1">
    <path
       style="fill:none;stroke:#000000;stroke-width:3.29035592;stroke-miterlimit:4;stroke-dasharray:none;stroke-opacity:1"
       d="M 110.34262,56.65186 A 80.376295,91.848211 0 0 0 29.966807,148.5 a 80.376295,91.848211 0 0 0 80.375813,91.84814 80.376295,91.848211 0 0 0 69.13214,-45.20603 l -18.26886,-9.8211 A 60.278989,68.88246 0 0 1 110.34262,217.38262 60.278989,68.88246 0 0 1 50.063814,148.5 60.278989,68.88246 0 0 1 110.34262,79.617384 60.278989,68.88246 0 0 1 159.93995,109.48326 L 178.2815,99.622878 A 80.376295,91.848211 0 0 0 110.34262,56.65186 Z"
       id="path5047"
       inkscape:connector-curvature="0" />
  </g>
</svg>
