<?xml version="1.0" encoding="UTF-8" standalone="no"?>
<!-- Created with Inkscape (http://www.inkscape.org/) -->

<svg
   xmlns:dc="http://purl.org/dc/elements/1.1/"
   xmlns:cc="http://creativecommons.org/ns#"
   xmlns:rdf="http://www.w3.org/1999/02/22-rdf-syntax-ns#"
   xmlns:svg="http://www.w3.org/2000/svg"
   xmlns="http://www.w3.org/2000/svg"
   xmlns:sodipodi="http://sodipodi.sourceforge.net/DTD/sodipodi-0.dtd"
   xmlns:inkscape="http://www.inkscape.org/namespaces/inkscape"
   width="8.5in"
   height="11in"
   viewBox="0 0 215.9 279.4"
   version="1.1"
   id="svg3686"
   inkscape:version="0.92.0 r15299"
   sodipodi:docname="nautical.svg">
  <defs
     id="defs3680">
    <inkscape:path-effect
       effect="spiro"
       id="path-effect3692"
       is_visible="true" />
  </defs>
  <sodipodi:namedview
     id="base"
     pagecolor="#ffffff"
     bordercolor="#666666"
     borderopacity="1.0"
     inkscape:pageopacity="0.0"
     inkscape:pageshadow="2"
     inkscape:zoom="0.98994949"
     inkscape:cx="22.767299"
     inkscape:cy="532.27732"
     inkscape:document-units="mm"
     inkscape:current-layer="layer1"
     showgrid="false"
     units="in"
     inkscape:window-width="2756"
     inkscape:window-height="1755"
     inkscape:window-x="-13"
     inkscape:window-y="-13"
     inkscape:window-maximized="1" />
  <metadata
     id="metadata3683">
    <rdf:RDF>
      <cc:Work
         rdf:about="">
        <dc:format>image/svg+xml</dc:format>
        <dc:type
           rdf:resource="http://purl.org/dc/dcmitype/StillImage" />
        <dc:title />
      </cc:Work>
    </rdf:RDF>
  </metadata>
  <g
     inkscape:label="Layer 1"
     inkscape:groupmode="layer"
     id="layer1"
     transform="translate(0,-17.6)">
    <path
       style="fill:none;stroke:#000000;stroke-width:3.17499995;stroke-linecap:butt;stroke-linejoin:miter;stroke-miterlimit:4;stroke-dasharray:none;stroke-opacity:1"
       d="M 198.18426,193.6313 C 201.09382,170.28863 195.25568,145.95862 182.0704,126.47801 168.88513,106.99739 148.46733,92.535502 125.71519,86.561714 101.3493,80.164221 74.233831,83.746159 53.14156,97.520789 42.595425,104.4081 33.618825,113.72366 27.298323,124.61895 c -6.320501,10.89529 -9.957997,23.36111 -10.290878,35.95259 -0.332881,12.59147 2.66077,25.28098 8.759638,36.30186 6.098868,11.02089 15.306231,20.32983 26.355067,26.37791 11.048836,6.04808 23.911593,8.78985 36.4491,7.57865 12.53751,-1.21119 24.68977,-6.39927 34.10865,-14.76233 10.70826,-9.5079 17.7698,-23.26074 18.35293,-37.56902 0.29157,-7.15415 -1.00782,-14.38192 -3.88368,-20.93906 -2.87586,-6.55715 -7.33367,-12.42933 -12.95161,-16.86841 -6.65143,-5.2557 -14.95235,-8.45769 -23.4241,-8.7633 -8.471739,-0.30561 -17.064236,2.33475 -23.743197,7.55541 -6.678961,5.22066 -11.348481,13.01917 -12.539539,21.41234 -1.191058,8.39316 1.178299,17.28151 6.589186,23.80732 2.104245,2.53783 4.652375,4.72567 7.557656,6.2838 2.905281,1.55812 6.172422,2.47532 9.469055,2.50026 3.296634,0.0249 6.616646,-0.86039 9.382178,-2.65489 2.765531,-1.79451 4.950561,-4.51087 5.967581,-7.64681 1.29956,-4.00715 0.58785,-8.61274 -1.86069,-12.04069 -2.448527,-3.42794 -6.574334,-5.59489 -10.786363,-5.6652"
       id="path3690"
       inkscape:connector-curvature="0"
       inkscape:path-effect="#path-effect3692"
       inkscape:original-d="M 198.18426,193.6313 C 173.90121,157.20704 149.99682,123.32182 125.71519,86.561714 101.43353,49.801645 123.69094,172.89829 122.6799,216.06763 c -1.01105,43.16934 1.01104,-50.25169 1.51764,-75.37649 0.50661,-25.1248 -35.41248,29.34049 -53.11765,44.01177 -17.705179,14.6713 21.583613,-1.01247 32.37647,-1.51764 10.79287,-0.50517 -8.432082,-11.80465 -12.647053,-17.70589"
       sodipodi:nodetypes="csssssc" />
    <path
       style="fill:none;stroke:#000000;stroke-width:3.17499995;stroke-linecap:butt;stroke-linejoin:miter;stroke-miterlimit:4;stroke-dasharray:none;stroke-opacity:1"
       d="m 141.13978,183.14199 57.04448,10.48931"
       id="path3694"
       inkscape:connector-curvature="0" />
  </g>
</svg>
